<?xml version="1.0" standalone="no"?>
<!DOCTYPE svg PUBLIC "-//W3C//DTD SVG 20010904//EN"
 "http://www.w3.org/TR/2001/REC-SVG-20010904/DTD/svg10.dtd">
<svg version="1.0" xmlns="http://www.w3.org/2000/svg"
 width="1920.000000pt" height="1920.000000pt" viewBox="0 0 1920.000000 1920.000000"
 preserveAspectRatio="xMidYMid meet">

<g transform="translate(0.000000,1920.000000) scale(0.100000,-0.100000)"
fill="#000000" stroke="none">
<path d="M9155 17192 c-68 -22 -155 -109 -178 -176 -49 -143 12 -293 147 -364
l51 -27 1080 0 1080 0 46 21 c60 28 126 94 151 152 30 66 28 171 -3 237 -29
62 -88 121 -148 149 l-46 21 -1065 2 c-967 2 -1070 0 -1115 -15z"/>
<path d="M12204 17192 c-52 -18 -102 -54 -136 -97 -88 -113 -75 -293 29 -391
48 -45 73 -58 153 -79 173 -45 304 -135 452 -312 84 -100 140 -134 238 -140
161 -12 295 103 308 264 6 84 -11 141 -69 220 -129 177 -345 358 -537 449
-189 90 -344 120 -438 86z"/>
<path d="M13191 15849 c-45 -14 -106 -53 -141 -92 -50 -55 -70 -123 -70 -244
0 -193 -52 -435 -124 -568 -17 -33 -21 -57 -21 -135 0 -85 3 -100 27 -140 30
-51 66 -86 123 -121 34 -21 53 -24 130 -24 105 0 163 23 222 89 64 71 153 297
192 492 44 218 52 485 17 568 -45 106 -144 177 -255 182 -36 2 -81 -1 -100 -7z"/>
<path d="M12399 14381 c-19 -4 -64 -23 -100 -43 -35 -20 -95 -53 -134 -75 -99
-55 -237 -114 -398 -169 -157 -54 -210 -91 -252 -175 -109 -215 77 -466 313
-422 156 30 618 232 780 342 105 71 148 155 140 275 -9 130 -83 224 -207 260
-58 17 -84 18 -142 7z"/>
<path d="M8885 13909 c-176 -15 -395 -49 -450 -70 -67 -25 -145 -107 -169
-175 -48 -140 16 -295 149 -360 68 -33 129 -35 285 -11 63 9 190 24 282 32
189 16 236 32 300 103 139 154 79 398 -116 471 -61 23 -109 24 -281 10z"/>
<path d="M10775 13904 c-11 -3 -173 -10 -360 -18 -312 -11 -343 -14 -381 -34
-213 -110 -215 -415 -2 -521 l61 -31 241 0 c325 0 553 15 625 42 151 57 226
242 158 391 -48 106 -139 168 -256 173 -36 1 -75 0 -86 -2z"/>
<path d="M7478 13481 c-87 -35 -378 -254 -430 -324 -82 -109 -79 -273 6 -373
106 -123 292 -136 418 -29 62 52 179 141 270 206 53 38 71 58 97 109 53 108
39 242 -35 328 -74 86 -224 125 -326 83z"/>
<path d="M6688 12463 c-59 -20 -120 -71 -154 -129 -55 -93 -108 -384 -102
-557 2 -83 7 -110 26 -147 54 -103 128 -151 243 -158 99 -6 154 13 220 75 67
62 88 119 100 266 5 67 19 163 31 212 46 195 33 270 -63 367 -43 43 -68 60
-109 72 -67 20 -131 19 -192 -1z"/>
<path d="M6869 11035 c-60 -19 -133 -85 -165 -146 -29 -58 -40 -149 -25 -204
26 -98 265 -480 343 -551 59 -53 112 -74 188 -74 93 0 155 24 216 87 60 60 84
119 84 204 0 80 -17 119 -112 260 -47 68 -108 167 -136 219 -81 151 -157 210
-280 216 -41 2 -85 -2 -113 -11z"/>
<path d="M7752 9924 c-66 -24 -147 -105 -171 -170 -46 -121 -21 -224 78 -324
105 -106 342 -287 453 -346 52 -28 190 -26 245 4 110 58 166 147 167 266 0 60
-4 81 -29 129 -33 66 -52 83 -220 206 -66 48 -149 113 -185 145 -36 31 -83 67
-105 78 -53 28 -173 34 -233 12z"/>
</g>
</svg>
